<?xml version="1.0" encoding="UTF-8"?><svg id="Layer_1" xmlns="http://www.w3.org/2000/svg" viewBox="0 0 962.88 848.77"><defs><style>.cls-1{fill:#fff;}</style></defs><path class="cls-1" d="m942.87,132.58c-11.02-52.23-43.65-93.22-85.12-107.18C782.63,0,481.59,0,481.59,0c0,0-301.19,0-376.16,25.39-41.47,13.96-74.1,54.95-85.12,107.18C0,227.06,0,424.39,0,424.39c0,0,0,197.32,20.16,291.81,11.02,52.23,43.65,93.22,85.12,107.18,75.12,25.39,376.16,25.39,376.16,25.39,0,0,301.19,0,376.16-25.39,41.47-13.96,74.1-54.95,85.12-107.18,20.16-94.49,20.16-291.81,20.16-291.81,0,0,0-197.32-20.01-291.81Zm-559.89,470.81V245.38l251.6,179-251.6,179Z"/></svg>