<?xml version="1.0" encoding="UTF-8"?>
<svg id="Layer_1" data-name="Layer 1" xmlns="http://www.w3.org/2000/svg" viewBox="0 0 342.67 114.7">
  <defs>
    <style>
      .cls-1 {
        fill: #fff;
      }

      .cls-2 {
        fill: #003057;
      }
    </style>
  </defs>
  <polygon class="cls-1" points="342.67 114.7 342.67 0 199.31 0 249.73 114.7 342.67 114.7"/>
  <path class="cls-1" d="m74.9,75.24c-6.66,6.36-13.22,10.6-23.65,10.6-16.1,0-28.25-13.02-28.25-30.27s12.15-30.07,28.25-30.07c8.7,0,15.58,3,23,10.06l.49.47,6.67-7.17-.48-.45c-6.62-6.25-14.79-12-29.59-12-21.9-.03-38.42,16.91-38.42,39.37s16.38,39.18,38.12,39.18c15.16,0,23.84-6.74,30.34-13.32l.47-.48-6.48-6.36-.47.44Z"/>
  <path class="cls-1" d="m109.41,36.04c-15.46,0-27.13,12.64-27.13,29.45s12.13,29.47,28.2,29.47c9.51,0,16.67-3.26,23.22-10.57l.44-.5-6.09-5.46-.45.47c-4.94,5.17-10.31,7.58-16.91,7.58-9.92,0-17.35-6.94-18.67-17.34h43.59l.07-.59c.09-.87.12-1.75.11-2.63,0-17.88-10.64-29.88-26.38-29.88m-17.39,25.69c1.3-10.31,8.28-17.45,17.18-17.45,11,0,15.92,8.88,16.87,17.45h-34.05Z"/>
  <path class="cls-1" d="m171.98,46.42v-10.17h-.64c-9.11-.38-17.11,4.55-21.88,13.18v-12.24h-9.55v56.49h9.55v-22.64c0-15,8.33-24.62,21.21-24.62,0,0,1.31,0,1.31,0Z"/>
  <polygon class="cls-2" points="281.12 17.66 254.89 80.92 228.78 17.66 217.92 17.66 250.62 94.21 258.97 94.21 291.65 17.66 281.12 17.66"/>
  <path class="cls-1" d="m192.99,36.44h-17.16v8.6h16.67c9.93.12,15.4,5.22,15.4,14.37v1c-5.31-1.48-10.79-2.2-16.3-2.14-15.18,0-24.25,6.95-24.25,18.59,0,12.34,11,18,21.26,18,9.6,0,15.67-4.23,19.29-8.3v7.13h9.25v-34.39c0-14.74-8.57-22.86-24.13-22.86m-2.81,50.6c-6.35,0-13.2-3.26-13.2-10.43,0-6.79,5.77-10.85,15.44-10.85,5.26,0,10.49.74,15.55,2.18v4.8c0,8.14-7.64,14.27-17.79,14.27"/>
  <path class="cls-1" d="m25.84,113.86c-.63.57-1.46.88-2.31.84h-3.13v-8.92h3.13c.85-.04,1.68.26,2.31.84,1,1,.9,2.26.9,3.55s.06,2.72-.9,3.69m-.93-6.27c-.4-.41-.95-.63-1.52-.6h-1.64v6.49h1.64c.57.04,1.13-.18,1.52-.6.46-.51.48-1.48.48-2.71s0-2.06-.48-2.58"/>
  <polygon class="cls-1" points="28.74 114.7 28.74 105.77 34.44 105.77 34.44 106.99 30.09 106.99 30.09 109.6 33.8 109.6 33.8 110.8 30.09 110.8 30.09 113.48 34.44 113.48 34.44 114.7 28.74 114.7"/>
  <polygon class="cls-1" points="39.17 114.7 38.12 114.7 35.19 105.77 36.6 105.77 38.65 112.26 40.7 105.77 42.13 105.77 39.17 114.7"/>
  <polygon class="cls-1" points="43.36 114.7 43.36 105.77 49.06 105.77 49.06 106.99 44.71 106.99 44.71 109.6 48.42 109.6 48.42 110.8 44.71 110.8 44.71 113.48 49.06 113.48 49.06 114.7 43.36 114.7"/>
  <polygon class="cls-1" points="50.91 114.7 50.91 105.77 52.26 105.77 52.26 113.48 56.56 113.48 56.56 114.7 50.91 114.7"/>
  <path class="cls-1" d="m63.01,113.82c-.61.64-1.46,1-2.35,1s-1.73-.36-2.34-1c-.88-.88-.87-1.87-.87-3.58s0-2.71.87-3.59c.61-.64,1.45-1.01,2.34-1,.89,0,1.74.36,2.35,1,.88.88.85,1.87.85,3.59s0,2.7-.85,3.58m-1-6.35c-.35-.36-.83-.55-1.33-.55s-.98.19-1.33.55c-.44.47-.53,1-.53,2.77s.09,2.29.53,2.77c.35.36.83.55,1.33.55s.98-.2,1.33-.55c.43-.48.52-1,.52-2.77s-.09-2.3-.52-2.77"/>
  <path class="cls-1" d="m69.25,111.19h-2v3.51h-1.38v-8.92h3.38c1.49-.09,2.78,1.05,2.87,2.54s-1.05,2.78-2.54,2.87h-.33m-.1-4.15h-2v3h2c.83,0,1.5-.67,1.5-1.5s-.67-1.5-1.5-1.5"/>
  <polygon class="cls-1" points="73.75 114.7 73.75 105.77 79.45 105.77 79.45 106.99 75.1 106.99 75.1 109.6 78.81 109.6 78.81 110.8 75.1 110.8 75.1 113.48 79.45 113.48 79.45 114.7 73.75 114.7"/>
  <path class="cls-1" d="m86.74,113.86c-.63.57-1.46.88-2.31.84h-3.13v-8.92h3.13c.85-.04,1.68.26,2.31.84,1,1,.9,2.26.9,3.55s.06,2.72-.9,3.69m-.93-6.27c-.4-.41-.95-.63-1.52-.6h-1.64v6.49h1.64c.57.04,1.13-.18,1.52-.6.46-.51.47-1.48.47-2.71s0-2.06-.47-2.58"/>
  <polygon class="cls-1" points="99.93 114.7 98.75 114.7 96.93 108.44 95.13 114.7 93.95 114.7 91.62 105.77 93.05 105.77 94.6 112.15 96.39 105.77 97.48 105.77 99.28 112.15 100.83 105.77 102.25 105.77 99.93 114.7"/>
  <rect class="cls-1" x="103.56" y="105.78" width="1.35" height="8.92"/>
  <polygon class="cls-1" points="110.25 106.99 110.25 114.7 108.9 114.7 108.9 106.99 106.45 106.99 106.45 105.77 112.71 105.77 112.71 106.99 110.25 106.99"/>
  <polygon class="cls-1" points="119.23 114.7 119.23 110.8 115.6 110.8 115.6 114.7 114.25 114.7 114.25 105.77 115.6 105.77 115.6 109.59 119.23 109.59 119.23 105.77 120.58 105.77 120.58 114.7 119.23 114.7"/>
  <path class="cls-1" d="m131.35,113.86c-.62.57-1.45.88-2.3.84h-3.14v-8.92h3.14c.85-.04,1.68.26,2.3.84,1,1,.9,2.26.9,3.55s.07,2.72-.9,3.69m-.93-6.27c-.39-.41-.94-.63-1.51-.6h-1.64v6.49h1.64c.57.04,1.12-.18,1.51-.6.47-.51.48-1.48.48-2.71s0-2.06-.48-2.58"/>
  <polygon class="cls-1" points="134.25 114.7 134.25 105.77 139.96 105.77 139.96 106.99 135.61 106.99 135.61 109.6 139.32 109.6 139.32 110.8 135.61 110.8 135.61 113.48 139.96 113.48 139.96 114.7 134.25 114.7"/>
  <path class="cls-1" d="m146.73,114.7l-1.88-3.76h-1.7v3.76h-1.35v-8.92h3.46c1.4-.12,2.64.92,2.76,2.32,0,.09,0,.19,0,.28.04,1.11-.7,2.1-1.78,2.37l2,4-1.52-.05h.01Zm-1.58-7.66h-2v2.79h2c.77.07,1.45-.51,1.51-1.28.07-.77-.51-1.45-1.28-1.51h-.24"/>
  <polygon class="cls-1" points="156.53 114.7 156.53 108.73 154.47 113.08 153.47 113.08 151.37 108.73 151.37 114.7 150 114.7 150 105.77 151.37 105.77 153.97 111.33 156.53 105.77 157.88 105.77 157.88 114.7 156.53 114.7"/>
  <path class="cls-1" d="m165.31,114.7l-.61-1.8h-3.56l-.62,1.8h-1.38l3.27-8.93h1.09l3.27,8.93h-1.46Zm-2.34-6.91l-1.39,4h2.74l-1.35-4Z"/>
  <polygon class="cls-1" points="170.28 106.99 170.28 114.7 168.94 114.7 168.94 106.99 166.48 106.99 166.48 105.77 172.75 105.77 172.75 106.99 170.28 106.99"/>
  <path class="cls-1" d="m179.28,113.82c-.62.64-1.47,1-2.36,1s-1.73-.36-2.34-1c-.88-.88-.87-1.87-.87-3.58s0-2.71.87-3.59c.61-.64,1.46-1,2.34-1s1.74.36,2.36,1c.87.88.85,1.87.85,3.59s0,2.7-.85,3.58m-1-6.35c-.35-.36-.83-.55-1.33-.55s-.98.19-1.33.55c-.44.47-.52,1-.52,2.77s.08,2.29.52,2.77c.35.36.83.55,1.33.55s.98-.2,1.33-.55c.44-.48.52-1,.52-2.77s-.08-2.3-.52-2.77"/>
  <polygon class="cls-1" points="182.13 114.7 182.13 105.77 183.48 105.77 183.48 113.48 187.78 113.48 187.78 114.7 182.13 114.7"/>
  <path class="cls-1" d="m194.23,113.82c-1.31,1.27-3.39,1.27-4.7,0-.88-.88-.86-1.87-.86-3.58s0-2.71.86-3.59c1.31-1.27,3.39-1.27,4.7,0,.88.88.85,1.87.85,3.59s0,2.7-.85,3.58m-1-6.35c-.73-.73-1.91-.73-2.64,0h0c-.44.47-.53,1-.53,2.77s.09,2.29.53,2.77c.73.73,1.91.73,2.64,0h0c.44-.48.53-1,.53-2.77s-.09-2.3-.53-2.77"/>
  <path class="cls-1" d="m202.42,113.76c-.64.67-1.53,1.03-2.45,1-.89,0-1.73-.36-2.35-1-.87-.88-.86-1.87-.86-3.59s0-2.7.86-3.58c.61-.64,1.46-1,2.35-1,1.64-.07,3.05,1.14,3.24,2.77h-1.36c-.14-.92-.95-1.59-1.88-1.55-.5,0-.98.19-1.32.55-.44.47-.54,1-.54,2.76s.1,2.31.54,2.79c.35.36.82.55,1.32.54.55.01,1.08-.22,1.45-.63.32-.39.48-.89.45-1.4v-.38h-1.9v-1.15h3.26v1.37c.09.92-.21,1.83-.81,2.52"/>
  <rect class="cls-1" x="205.2" y="105.78" width="1.35" height="8.92"/>
  <path class="cls-1" d="m211.27,114.77c-1.18.09-2.33-.34-3.16-1.18l.9-.89c.6.61,1.43.92,2.28.86,1.17,0,1.84-.5,1.84-1.37.02-.35-.11-.68-.35-.93-.28-.24-.63-.37-1-.37l-1.06-.15c-.62-.06-1.22-.31-1.69-.72-.45-.45-.69-1.07-.65-1.7,0-1.56,1.13-2.62,3-2.62,1.02-.06,2.02.3,2.77,1l-.87.86c-.52-.49-1.23-.74-1.94-.69-1,0-1.63.6-1.63,1.39,0,.31.11.62.34.83.29.22.64.36,1,.41l1,.15c.61.04,1.2.27,1.67.66.49.48.76,1.14.72,1.83,0,1.64-1.34,2.62-3.2,2.62"/>
  <polygon class="cls-1" points="219.31 106.99 219.31 114.7 217.95 114.7 217.95 106.99 215.5 106.99 215.5 105.77 221.75 105.77 221.75 106.99 219.31 106.99"/>
  <path class="cls-1" d="m225.67,114.77c-1.18.09-2.33-.34-3.16-1.18l.9-.89c.6.6,1.43.92,2.28.86,1.17,0,1.85-.5,1.85-1.37.02-.35-.11-.69-.36-.93-.28-.24-.63-.37-1-.37l-1.03-.15c-.63-.06-1.22-.31-1.7-.72-.45-.45-.69-1.07-.65-1.7,0-1.56,1.13-2.62,3-2.62,1.02-.06,2.02.3,2.77,1l-.86.86c-.52-.49-1.23-.74-1.94-.69-1.06,0-1.63.6-1.63,1.39,0,.31.11.62.34.83.29.23.64.37,1,.41l1,.15c.61.04,1.2.27,1.67.66.5.47.77,1.14.73,1.83,0,1.64-1.34,2.62-3.21,2.62"/>
  <path class="cls-2" d="m304.95,36.04c-15.46,0-27.12,12.67-27.12,29.48s12.12,29.47,28.19,29.47c9.51,0,16.67-3.26,23.22-10.57l.45-.5-6.1-5.46-.45.47c-4.93,5.17-10.3,7.58-16.9,7.58-9.93,0-17.35-6.94-18.68-17.34h43.59l.07-.59c.09-.87.12-1.75.11-2.63.01-17.91-10.6-29.91-26.38-29.91m16.66,25.72h-34c1.31-10.31,8.29-17.45,17.18-17.45,11,0,15.93,8.88,16.87,17.45"/>
</svg>