<?xml version="1.0" encoding="UTF-8"?>
<svg width="22px" height="21px" viewBox="0 0 22 21" version="1.1" xmlns="http://www.w3.org/2000/svg" xmlns:xlink="http://www.w3.org/1999/xlink">
    <title>Combined Shape</title>
    <g id="Screens" stroke="none" stroke-width="1" fill="none" fill-rule="evenodd">
        <g id="M_NAV_2" transform="translate(-283.000000, -35.000000)" fill="#ffffff">
            <g id="SEARCH-ICON" transform="translate(294.905592, 47.005952) rotate(-45.000000) translate(-294.905592, -47.005952) translate(286.405592, 34.005952)">
                <path d="M8.92451878,0.208994877 C13.3427968,0.208994877 16.9245188,3.60503053 16.9245188,7.7942528 C16.9245188,11.6168359 13.9423038,14.7789956 10.0635133,15.3032179 C10.0665441,15.3254957 10.0673759,15.3491067 10.0673759,15.3729121 L10.0673759,24.2089949 C10.0673759,24.7612796 9.61966067,25.2089949 9.06737592,25.2089949 L8.78166163,25.2089949 C8.22937688,25.2089949 7.78166163,24.7612796 7.78166163,24.2089949 L7.78166163,15.3729121 L7.78552425,15.3032179 C3.90673372,14.7789956 0.924518776,11.6168359 0.924518776,7.7942528 C0.924518776,3.60503053 4.50624078,0.208994877 8.92451878,0.208994877 Z M8.92451878,2.37621143 C5.76860592,2.37621143 3.21023306,4.80195118 3.21023306,7.7942528 C3.21023306,10.7865544 5.76860592,13.2122942 8.92451878,13.2122942 C12.0804316,13.2122942 14.6388045,10.7865544 14.6388045,7.7942528 C14.6388045,4.80195118 12.0804316,2.37621143 8.92451878,2.37621143 Z" id="Combined-Shape"></path>
            </g>
        </g>
    </g>
</svg>